<svg width="54" height="54" viewBox="0 0 54 54" fill="none" xmlns="http://www.w3.org/2000/svg">
<path d="M52.7899 35.1204L48.4511 28.177C48.4511 28.177 48.4355 28.1476 48.4252 28.1355L48.0832 27.5897C47.7685 27.0824 47.3295 26.6638 46.8078 26.3736C46.2861 26.0835 45.6989 25.9313 45.102 25.9316L38.1136 25.9074L37.6265 26.6898L29.2753 40.0517L28.8142 40.7909L32.3153 46.3785C32.9612 47.4183 34.077 48.0384 35.3068 48.0384H45.1002C46.3076 48.0384 47.4493 47.4028 48.0884 46.382L48.4338 45.8293C48.4338 45.8293 48.4476 45.8155 48.4511 45.8086L52.7951 38.8564C53.1447 38.2958 53.33 37.6483 53.33 36.9876C53.33 36.3269 53.1447 35.6794 52.7951 35.1187H52.7916L52.7899 35.1204ZM51.4668 38.0274L47.1211 44.9795C47.1038 45.014 47.0796 45.0382 47.0607 45.0658C46.9995 45.1342 46.9232 45.1873 46.8378 45.2209C46.7525 45.2545 46.6604 45.2676 46.5691 45.2592C46.4778 45.2508 46.3896 45.2212 46.3118 45.1726C46.234 45.124 46.1687 45.0579 46.121 44.9795L41.777 38.0239C41.6787 37.8685 41.6031 37.6998 41.5525 37.523C41.4771 37.2608 41.4577 36.9857 41.4955 36.7155C41.5333 36.4454 41.6274 36.1861 41.7719 35.9547L46.1107 29.0112L46.121 28.9939C46.2247 28.8385 46.3542 28.7677 46.4665 28.7452C46.5114 28.7314 46.5511 28.7279 46.5822 28.7228H46.6306C46.7307 28.7228 46.9795 28.7539 47.1349 29.006L51.472 35.9495C51.8693 36.5817 51.8693 37.3952 51.472 38.0274H51.4668ZM39.9531 18.3214C40.3011 17.7601 40.4855 17.1129 40.4855 16.4525C40.4855 15.7921 40.3011 15.1448 39.9531 14.5836L35.6143 7.64015L35.2516 7.05634C34.9356 6.54796 34.4949 6.12887 33.9713 5.83894C33.4476 5.54901 32.8585 5.39788 32.26 5.39992H22.4666C21.2454 5.39992 20.1279 6.02173 19.4767 7.05807L1.94012 35.1273C1.58778 35.6862 1.40052 36.3333 1.3999 36.994C1.39929 37.6547 1.58536 38.3021 1.93666 38.8616L6.63992 46.3906C6.95492 46.8991 7.39498 47.3183 7.91809 47.6083C8.44121 47.8983 9.02993 48.0493 9.62804 48.0471H19.4215C20.6512 48.0471 21.767 47.4252 22.413 46.3889L22.7723 45.8189V45.812L22.7775 45.7999L26.2734 40.2089L36.6351 23.6274L39.9462 18.3248L39.9531 18.3231V18.3214ZM38.9288 16.4525C38.9288 16.81 38.8287 17.171 38.6266 17.4906L21.4475 44.9847C21.3943 45.0699 21.3202 45.14 21.2322 45.1884C21.1442 45.2368 21.0453 45.2618 20.9449 45.261C20.8442 45.2617 20.7451 45.2367 20.6568 45.1884C20.5685 45.14 20.4941 45.0699 20.4405 44.9847L16.1 38.0291C15.9068 37.7173 15.8044 37.3578 15.8044 36.991C15.8044 36.6242 15.9068 36.2647 16.1 35.953L33.2773 8.46749C33.3299 8.38097 33.404 8.30955 33.4924 8.2602C33.5808 8.21086 33.6804 8.18528 33.7817 8.18595C33.8819 8.18595 34.1306 8.21531 34.2878 8.46922L38.6266 15.4127C38.8287 15.7322 38.9288 16.0932 38.9288 16.4525Z" fill="white"/>
</svg>
