<svg width="75" height="40" viewBox="0 0 75 40" fill="none" xmlns="http://www.w3.org/2000/svg">
<g clip-path="url(#clip0_2306_634)">
<line x1="37.8769" y1="32.6469" x2="76.7678" y2="-6.24393" stroke="white" stroke-opacity="0.1"/>
<line x1="37.8769" y1="33.354" x2="-1.01395" y2="-5.53684" stroke="white" stroke-opacity="0.1"/>
<line x1="37.8779" y1="42.6464" x2="76.7688" y2="3.75558" stroke="white" stroke-opacity="0.1"/>
<line x1="37.8779" y1="43.3536" x2="-1.01298" y2="4.46268" stroke="white" stroke-opacity="0.1"/>
<line x1="37.8789" y1="52.6469" x2="76.7697" y2="13.7561" stroke="white" stroke-opacity="0.1"/>
<line x1="37.8789" y1="53.354" x2="-1.012" y2="14.4632" stroke="white" stroke-opacity="0.1"/>
<line x1="37.8808" y1="62.6464" x2="76.7717" y2="23.7556" stroke="white" stroke-opacity="0.1"/>
<line x1="37.8808" y1="63.3536" x2="-1.01005" y2="24.4627" stroke="white" stroke-opacity="0.1"/>
<line x1="37.8808" y1="72.646" x2="76.7717" y2="33.7551" stroke="white" stroke-opacity="0.1"/>
<line x1="37.8808" y1="73.3531" x2="-1.01005" y2="34.4622" stroke="white" stroke-opacity="0.1"/>
<line x1="37.8779" y1="22.6464" x2="76.7688" y2="-16.2444" stroke="white" stroke-opacity="0.1"/>
<line x1="37.8779" y1="23.3536" x2="-1.01298" y2="-15.5373" stroke="white" stroke-opacity="0.1"/>
<line x1="37.8789" y1="12.6469" x2="76.7697" y2="-26.2439" stroke="white" stroke-opacity="0.1"/>
<line x1="37.8789" y1="13.354" x2="-1.012" y2="-25.5368" stroke="white" stroke-opacity="0.1"/>
<line x1="37.8808" y1="2.64693" x2="76.7717" y2="-36.2439" stroke="white" stroke-opacity="0.1"/>
<line x1="37.8808" y1="3.35404" x2="-1.01005" y2="-35.5368" stroke="white" stroke-opacity="0.1"/>
</g>
<defs>
<clipPath id="clip0_2306_634">
<rect width="75" height="40" fill="white"/>
</clipPath>
</defs>
</svg>
