<svg width="16" height="16" viewBox="0 0 16 16" fill="none" xmlns="http://www.w3.org/2000/svg">
<path d="M1.68359 7.28711C1.68359 6.56771 1.81901 5.89062 2.08984 5.25586C2.36068 4.62109 2.7373 4.06462 3.21973 3.58643C3.70215 3.104 4.25863 2.72738 4.88916 2.45654C5.52393 2.18571 6.20312 2.05029 6.92676 2.05029C7.65039 2.05029 8.32747 2.18571 8.95801 2.45654C9.59277 2.72738 10.1514 3.104 10.6338 3.58643C11.1162 4.06462 11.4928 4.62109 11.7637 5.25586C12.0345 5.89062 12.1699 6.56771 12.1699 7.28711C12.1699 7.82878 12.0895 8.34505 11.9287 8.83594C11.7721 9.32682 11.5521 9.77751 11.2686 10.188L14.0044 12.9365C14.106 13.0423 14.1821 13.1587 14.2329 13.2856C14.2879 13.4168 14.3154 13.5565 14.3154 13.7046C14.3154 13.9077 14.2689 14.0918 14.1758 14.2568C14.0827 14.4219 13.9557 14.5509 13.7949 14.644C13.6341 14.7414 13.4479 14.79 13.2363 14.79C13.0924 14.79 12.9528 14.7646 12.8174 14.7139C12.682 14.6631 12.5614 14.5848 12.4556 14.479L9.69434 11.7178C9.29655 11.9717 8.86279 12.1727 8.39307 12.3208C7.92757 12.4647 7.4388 12.5366 6.92676 12.5366C6.20312 12.5366 5.52393 12.4012 4.88916 12.1304C4.25863 11.8595 3.70215 11.4829 3.21973 11.0005C2.7373 10.5181 2.36068 9.95947 2.08984 9.32471C1.81901 8.68994 1.68359 8.01074 1.68359 7.28711ZM3.18164 7.28711C3.18164 7.80762 3.27686 8.29427 3.46729 8.74707C3.66195 9.19987 3.93066 9.59766 4.27344 9.94043C4.62044 10.2832 5.02035 10.5519 5.47314 10.7466C5.92594 10.9412 6.41048 11.0386 6.92676 11.0386C7.44303 11.0386 7.92757 10.9412 8.38037 10.7466C8.83317 10.5519 9.23096 10.2832 9.57373 9.94043C9.9165 9.59766 10.1852 9.19987 10.3799 8.74707C10.5745 8.29427 10.6719 7.80762 10.6719 7.28711C10.6719 6.77083 10.5745 6.28841 10.3799 5.83984C10.1852 5.38704 9.9165 4.98926 9.57373 4.64648C9.23096 4.29948 8.83317 4.02865 8.38037 3.83398C7.92757 3.63932 7.44303 3.54199 6.92676 3.54199C6.41048 3.54199 5.92594 3.63932 5.47314 3.83398C5.02035 4.02865 4.62044 4.29948 4.27344 4.64648C3.93066 4.98926 3.66195 5.38704 3.46729 5.83984C3.27686 6.28841 3.18164 6.77083 3.18164 7.28711Z" fill="black"/>
<path d="M1.68359 7.28711C1.68359 6.56771 1.81901 5.89062 2.08984 5.25586C2.36068 4.62109 2.7373 4.06462 3.21973 3.58643C3.70215 3.104 4.25863 2.72738 4.88916 2.45654C5.52393 2.18571 6.20312 2.05029 6.92676 2.05029C7.65039 2.05029 8.32747 2.18571 8.95801 2.45654C9.59277 2.72738 10.1514 3.104 10.6338 3.58643C11.1162 4.06462 11.4928 4.62109 11.7637 5.25586C12.0345 5.89062 12.1699 6.56771 12.1699 7.28711C12.1699 7.82878 12.0895 8.34505 11.9287 8.83594C11.7721 9.32682 11.5521 9.77751 11.2686 10.188L14.0044 12.9365C14.106 13.0423 14.1821 13.1587 14.2329 13.2856C14.2879 13.4168 14.3154 13.5565 14.3154 13.7046C14.3154 13.9077 14.2689 14.0918 14.1758 14.2568C14.0827 14.4219 13.9557 14.5509 13.7949 14.644C13.6341 14.7414 13.4479 14.79 13.2363 14.79C13.0924 14.79 12.9528 14.7646 12.8174 14.7139C12.682 14.6631 12.5614 14.5848 12.4556 14.479L9.69434 11.7178C9.29655 11.9717 8.86279 12.1727 8.39307 12.3208C7.92757 12.4647 7.4388 12.5366 6.92676 12.5366C6.20312 12.5366 5.52393 12.4012 4.88916 12.1304C4.25863 11.8595 3.70215 11.4829 3.21973 11.0005C2.7373 10.5181 2.36068 9.95947 2.08984 9.32471C1.81901 8.68994 1.68359 8.01074 1.68359 7.28711ZM3.18164 7.28711C3.18164 7.80762 3.27686 8.29427 3.46729 8.74707C3.66195 9.19987 3.93066 9.59766 4.27344 9.94043C4.62044 10.2832 5.02035 10.5519 5.47314 10.7466C5.92594 10.9412 6.41048 11.0386 6.92676 11.0386C7.44303 11.0386 7.92757 10.9412 8.38037 10.7466C8.83317 10.5519 9.23096 10.2832 9.57373 9.94043C9.9165 9.59766 10.1852 9.19987 10.3799 8.74707C10.5745 8.29427 10.6719 7.80762 10.6719 7.28711C10.6719 6.77083 10.5745 6.28841 10.3799 5.83984C10.1852 5.38704 9.9165 4.98926 9.57373 4.64648C9.23096 4.29948 8.83317 4.02865 8.38037 3.83398C7.92757 3.63932 7.44303 3.54199 6.92676 3.54199C6.41048 3.54199 5.92594 3.63932 5.47314 3.83398C5.02035 4.02865 4.62044 4.29948 4.27344 4.64648C3.93066 4.98926 3.66195 5.38704 3.46729 5.83984C3.27686 6.28841 3.18164 6.77083 3.18164 7.28711Z" fill="black" fill-opacity="0.2"/>
</svg>
