<svg width="16" height="16" viewBox="0 0 16 16" fill="none" xmlns="http://www.w3.org/2000/svg">
<path d="M7.99951 15.0376C7.08545 15.0376 6.22852 14.8641 5.42871 14.5171C4.62891 14.1743 3.92432 13.7004 3.31494 13.0952C2.7098 12.4901 2.23584 11.7876 1.89307 10.9878C1.55029 10.188 1.37891 9.33105 1.37891 8.41699C1.37891 7.50293 1.55029 6.646 1.89307 5.84619C2.23584 5.04639 2.7098 4.34391 3.31494 3.73877C3.92432 3.12939 4.62891 2.65332 5.42871 2.31055C6.22852 1.96777 7.08545 1.79639 7.99951 1.79639C8.91357 1.79639 9.77051 1.96777 10.5703 2.31055C11.3701 2.65332 12.0726 3.12939 12.6777 3.73877C13.2829 4.34391 13.7568 5.04639 14.0996 5.84619C14.4466 6.646 14.6201 7.50293 14.6201 8.41699C14.6201 9.33105 14.4466 10.188 14.0996 10.9878C13.7568 11.7876 13.2829 12.4901 12.6777 13.0952C12.0726 13.7004 11.3701 14.1743 10.5703 14.5171C9.77051 14.8641 8.91357 15.0376 7.99951 15.0376ZM7.99951 13.584C8.71468 13.584 9.3833 13.4507 10.0054 13.1841C10.6317 12.9175 11.1797 12.5472 11.6494 12.0732C12.1234 11.5951 12.4937 11.0449 12.7603 10.4229C13.0311 9.79655 13.1665 9.12793 13.1665 8.41699C13.1665 7.70182 13.0311 7.0332 12.7603 6.41113C12.4937 5.78483 12.1234 5.2347 11.6494 4.76074C11.1797 4.28678 10.6317 3.9165 10.0054 3.6499C9.3833 3.3833 8.71468 3.25 7.99951 3.25C7.28434 3.25 6.61361 3.3833 5.9873 3.6499C5.36523 3.9165 4.81722 4.28678 4.34326 4.76074C3.8693 5.2347 3.49902 5.78483 3.23242 6.41113C2.96582 7.0332 2.83252 7.70182 2.83252 8.41699C2.83252 9.12793 2.96582 9.79655 3.23242 10.4229C3.49902 11.0449 3.8693 11.5951 4.34326 12.0732C4.81722 12.5472 5.36523 12.9175 5.9873 13.1841C6.61361 13.4507 7.28434 13.584 7.99951 13.584ZM12.1509 12.6128C11.7362 12.9683 11.2834 13.2666 10.7925 13.5078C10.3058 13.7533 9.81917 13.9373 9.33252 14.0601C8.84587 14.187 8.40153 14.2505 7.99951 14.2505C7.60596 14.2505 7.16374 14.187 6.67285 14.0601C6.1862 13.9373 5.69743 13.7533 5.20654 13.5078C4.71566 13.2666 4.26497 12.9683 3.85449 12.6128L3.87988 12.4731C4.03646 12.1642 4.30518 11.8701 4.68604 11.5908C5.06689 11.3073 5.53874 11.0767 6.10156 10.8989C6.66439 10.7212 7.29704 10.6323 7.99951 10.6323C8.71045 10.6323 9.34733 10.7212 9.91016 10.8989C10.473 11.0767 10.9427 11.3073 11.3193 11.5908C11.7002 11.8701 11.9689 12.1663 12.1255 12.4795L12.1509 12.6128ZM7.99951 9.61035C7.58903 9.60612 7.21875 9.49821 6.88867 9.28662C6.55859 9.07503 6.29622 8.78939 6.10156 8.42969C5.91113 8.06576 5.8138 7.65739 5.80957 7.20459C5.80534 6.77718 5.90055 6.38574 6.09521 6.03027C6.29411 5.6748 6.55859 5.38916 6.88867 5.17334C7.22298 4.95752 7.59326 4.84961 7.99951 4.84961C8.40999 4.84961 8.78027 4.95752 9.11035 5.17334C9.44043 5.38916 9.7028 5.6748 9.89746 6.03027C10.0964 6.38574 10.1958 6.77718 10.1958 7.20459C10.1958 7.65739 10.0985 8.06576 9.90381 8.42969C9.70915 8.79362 9.44678 9.0835 9.1167 9.29932C8.78662 9.5109 8.41423 9.61458 7.99951 9.61035Z" fill="black"/>
<path d="M7.99951 15.0376C7.08545 15.0376 6.22852 14.8641 5.42871 14.5171C4.62891 14.1743 3.92432 13.7004 3.31494 13.0952C2.7098 12.4901 2.23584 11.7876 1.89307 10.9878C1.55029 10.188 1.37891 9.33105 1.37891 8.41699C1.37891 7.50293 1.55029 6.646 1.89307 5.84619C2.23584 5.04639 2.7098 4.34391 3.31494 3.73877C3.92432 3.12939 4.62891 2.65332 5.42871 2.31055C6.22852 1.96777 7.08545 1.79639 7.99951 1.79639C8.91357 1.79639 9.77051 1.96777 10.5703 2.31055C11.3701 2.65332 12.0726 3.12939 12.6777 3.73877C13.2829 4.34391 13.7568 5.04639 14.0996 5.84619C14.4466 6.646 14.6201 7.50293 14.6201 8.41699C14.6201 9.33105 14.4466 10.188 14.0996 10.9878C13.7568 11.7876 13.2829 12.4901 12.6777 13.0952C12.0726 13.7004 11.3701 14.1743 10.5703 14.5171C9.77051 14.8641 8.91357 15.0376 7.99951 15.0376ZM7.99951 13.584C8.71468 13.584 9.3833 13.4507 10.0054 13.1841C10.6317 12.9175 11.1797 12.5472 11.6494 12.0732C12.1234 11.5951 12.4937 11.0449 12.7603 10.4229C13.0311 9.79655 13.1665 9.12793 13.1665 8.41699C13.1665 7.70182 13.0311 7.0332 12.7603 6.41113C12.4937 5.78483 12.1234 5.2347 11.6494 4.76074C11.1797 4.28678 10.6317 3.9165 10.0054 3.6499C9.3833 3.3833 8.71468 3.25 7.99951 3.25C7.28434 3.25 6.61361 3.3833 5.9873 3.6499C5.36523 3.9165 4.81722 4.28678 4.34326 4.76074C3.8693 5.2347 3.49902 5.78483 3.23242 6.41113C2.96582 7.0332 2.83252 7.70182 2.83252 8.41699C2.83252 9.12793 2.96582 9.79655 3.23242 10.4229C3.49902 11.0449 3.8693 11.5951 4.34326 12.0732C4.81722 12.5472 5.36523 12.9175 5.9873 13.1841C6.61361 13.4507 7.28434 13.584 7.99951 13.584ZM12.1509 12.6128C11.7362 12.9683 11.2834 13.2666 10.7925 13.5078C10.3058 13.7533 9.81917 13.9373 9.33252 14.0601C8.84587 14.187 8.40153 14.2505 7.99951 14.2505C7.60596 14.2505 7.16374 14.187 6.67285 14.0601C6.1862 13.9373 5.69743 13.7533 5.20654 13.5078C4.71566 13.2666 4.26497 12.9683 3.85449 12.6128L3.87988 12.4731C4.03646 12.1642 4.30518 11.8701 4.68604 11.5908C5.06689 11.3073 5.53874 11.0767 6.10156 10.8989C6.66439 10.7212 7.29704 10.6323 7.99951 10.6323C8.71045 10.6323 9.34733 10.7212 9.91016 10.8989C10.473 11.0767 10.9427 11.3073 11.3193 11.5908C11.7002 11.8701 11.9689 12.1663 12.1255 12.4795L12.1509 12.6128ZM7.99951 9.61035C7.58903 9.60612 7.21875 9.49821 6.88867 9.28662C6.55859 9.07503 6.29622 8.78939 6.10156 8.42969C5.91113 8.06576 5.8138 7.65739 5.80957 7.20459C5.80534 6.77718 5.90055 6.38574 6.09521 6.03027C6.29411 5.6748 6.55859 5.38916 6.88867 5.17334C7.22298 4.95752 7.59326 4.84961 7.99951 4.84961C8.40999 4.84961 8.78027 4.95752 9.11035 5.17334C9.44043 5.38916 9.7028 5.6748 9.89746 6.03027C10.0964 6.38574 10.1958 6.77718 10.1958 7.20459C10.1958 7.65739 10.0985 8.06576 9.90381 8.42969C9.70915 8.79362 9.44678 9.0835 9.1167 9.29932C8.78662 9.5109 8.41423 9.61458 7.99951 9.61035Z" fill="black" fill-opacity="0.2"/>
</svg>
