<svg width="100" height="100" viewBox="0 0 100 100" fill="none" xmlns="http://www.w3.org/2000/svg">
<g clip-path="url(#clip0_2871_8049)">
<path fill-rule="evenodd" clip-rule="evenodd" d="M61.35 0.227216L6.017 4.31422C1.553 4.70022 0 7.61722 0 11.1132V71.7732C0 74.4962 0.967 76.8262 3.3 79.9402L16.307 96.8532C18.444 99.5762 20.387 100.16 24.467 99.9662L88.724 96.0762C94.157 95.6892 95.714 93.1592 95.714 88.8832V20.6402C95.714 18.4302 94.841 17.7932 92.271 15.9072L74.167 3.14322C69.894 0.036216 68.147 -0.356784 61.35 0.226216V0.227216ZM25.92 19.5232C20.673 19.8762 19.483 19.9562 16.503 17.5332L8.927 11.5072C8.157 10.7272 8.544 9.75422 10.484 9.56022L63.677 5.67322C68.144 5.28322 70.47 6.84022 72.217 8.20022L81.34 14.8102C81.73 15.0072 82.7 16.1702 81.533 16.1702L26.6 19.4772L25.92 19.5232ZM19.803 88.3002V30.3672C19.803 27.8372 20.58 26.6702 22.906 26.4742L86 22.7802C88.14 22.5872 89.107 23.9472 89.107 26.4732V84.0202C89.107 86.5502 88.717 88.6902 85.224 88.8832L24.847 92.3832C21.354 92.5762 19.804 91.4132 19.804 88.3002H19.803ZM79.403 33.4732C79.79 35.2232 79.403 36.9732 77.653 37.1732L74.743 37.7502V80.5232C72.216 81.8832 69.89 82.6602 67.946 82.6602C64.839 82.6602 64.063 81.6872 61.736 78.7732L42.706 48.8332V77.8002L48.726 79.1632C48.726 79.1632 48.726 82.6632 43.869 82.6632L30.479 83.4402C30.089 82.6602 30.479 80.7172 31.836 80.3302L35.333 79.3602V41.0602L30.48 40.6672C30.09 38.9172 31.06 36.3902 33.78 36.1942L48.147 35.2272L67.947 65.5542V38.7242L62.9 38.1442C62.51 36.0012 64.063 34.4442 66.003 34.2542L79.403 33.4732Z" fill="white"/>
</g>
<defs>
<clipPath id="clip0_2871_8049">
<rect width="100" height="100" fill="transparent"/>
</clipPath>
</defs>
</svg>
