<svg width="20" height="20" viewBox="0 0 20 20" fill="none" xmlns="http://www.w3.org/2000/svg">
<g clip-path="url(#clip0_1045_1068)">
<path d="M4.28346 12.5983C4.28346 13.7479 3.35432 14.677 2.20472 14.677C1.05511 14.677 0.125977 13.7479 0.125977 12.5983C0.125977 11.4487 1.05511 10.5195 2.20472 10.5195H4.28346V12.5983ZM5.32283 12.5983C5.32283 11.4487 6.25196 10.5195 7.40157 10.5195C8.55117 10.5195 9.48031 11.4487 9.48031 12.5983V17.7951C9.48031 18.9447 8.55117 19.8739 7.40157 19.8739C6.25196 19.8739 5.32283 18.9447 5.32283 17.7951V12.5983Z" fill="#E01E5A"/>
<path d="M7.40157 4.25196C6.25196 4.25196 5.32283 3.32283 5.32283 2.17322C5.32283 1.02362 6.25196 0.0944824 7.40157 0.0944824C8.55117 0.0944824 9.48031 1.02362 9.48031 2.17322V4.25196H7.40157ZM7.40157 5.30708C8.55117 5.30708 9.48031 6.23622 9.48031 7.38582C9.48031 8.53543 8.55117 9.46456 7.40157 9.46456H2.18897C1.03936 9.46456 0.110229 8.53543 0.110229 7.38582C0.110229 6.23622 1.03936 5.30708 2.18897 5.30708H7.40157Z" fill="#36C5F0"/>
<path d="M15.7324 7.38582C15.7324 6.23622 16.6615 5.30708 17.8111 5.30708C18.9607 5.30708 19.8899 6.23622 19.8899 7.38582C19.8899 8.53543 18.9607 9.46456 17.8111 9.46456H15.7324V7.38582ZM14.693 7.38582C14.693 8.53543 13.7639 9.46456 12.6143 9.46456C11.4647 9.46456 10.5355 8.53543 10.5355 7.38582V2.17322C10.5355 1.02362 11.4647 0.0944824 12.6143 0.0944824C13.7639 0.0944824 14.693 1.02362 14.693 2.17322V7.38582Z" fill="#2EB67D"/>
<path d="M12.6143 15.7164C13.7639 15.7164 14.693 16.6455 14.693 17.7951C14.693 18.9447 13.7639 19.8739 12.6143 19.8739C11.4647 19.8739 10.5355 18.9447 10.5355 17.7951V15.7164H12.6143ZM12.6143 14.677C11.4647 14.677 10.5355 13.7479 10.5355 12.5983C10.5355 11.4487 11.4647 10.5195 12.6143 10.5195H17.8269C18.9765 10.5195 19.9056 11.4487 19.9056 12.5983C19.9056 13.7479 18.9765 14.677 17.8269 14.677H12.6143Z" fill="#ECB22E"/>
</g>
<defs>
<clipPath id="clip0_1045_1068">
<rect width="20" height="20" fill="white"/>
</clipPath>
</defs>
</svg>
