<svg width="498" height="448" viewBox="0 0 498 448" fill="none" xmlns="http://www.w3.org/2000/svg">
<path fill-rule="evenodd" clip-rule="evenodd" d="M64.916 68.4314C112.473 -35.4928 267.29 -6.62411 360.581 59.6838C503.431 158.715 501.171 359.912 496.16 426.245C495.208 438.849 484.584 448 471.945 448H36.1744C21.4509 448 8.72586 437.39 6.5128 422.834C-20.2376 246.886 41.2218 213.113 85.5626 179.306C64.9685 146.454 48.4417 121.816 64.916 68.4314Z" fill="#34D399"/>
<path fill-rule="evenodd" clip-rule="evenodd" d="M64.916 68.4314C112.473 -35.4928 267.29 -6.62411 360.581 59.6838C503.431 158.715 501.171 359.912 496.16 426.245C495.208 438.849 484.584 448 471.945 448H36.1744C21.4509 448 8.72586 437.39 6.5128 422.834C-20.2376 246.886 41.2218 213.113 85.5626 179.306C64.9685 146.454 48.4417 121.816 64.916 68.4314Z" fill="url(#paint0_radial_2284_2692)"/>
<path d="M242.485 148.508C210.884 148.509 201.682 184.521 201.681 228.947C201.681 273.374 210.883 309.392 242.485 309.392C274.085 309.39 283.284 273.372 283.284 228.947C283.283 184.522 274.084 148.511 242.485 148.508Z" fill="white"/>
<path d="M372.311 148.508C340.709 148.508 331.506 184.521 331.505 228.947C331.505 273.374 340.709 309.392 372.311 309.392C403.913 309.392 413.115 273.374 413.115 228.947C413.114 184.521 403.912 148.509 372.311 148.508Z" fill="white"/>
<defs>
<radialGradient id="paint0_radial_2284_2692" cx="0" cy="0" r="1" gradientTransform="matrix(-405.911 0 -0.455618 -293.774 297.904 448.47)" gradientUnits="userSpaceOnUse">
<stop stop-color="#BEF264"/>
<stop offset="1" stop-color="#BEF264" stop-opacity="0"/>
</radialGradient>
</defs>
</svg>
