<svg width="16" height="16" viewBox="0 0 16 16" fill="none" xmlns="http://www.w3.org/2000/svg">
<path d="M4.96582 8.20752C4.36914 8.20752 3.83171 8.08057 3.35352 7.82666C2.87956 7.57275 2.50505 7.21729 2.22998 6.76025C1.95492 6.29899 1.81738 5.76579 1.81738 5.16064C1.81738 4.55127 1.95492 4.01807 2.22998 3.56104C2.50505 3.09977 2.87956 2.74219 3.35352 2.48828C3.83171 2.23438 4.36914 2.10742 4.96582 2.10742H11.0278C11.6245 2.10742 12.1598 2.23438 12.6338 2.48828C13.112 2.74219 13.4886 3.09977 13.7637 3.56104C14.0387 4.01807 14.1763 4.55127 14.1763 5.16064C14.1763 5.76579 14.0387 6.29899 13.7637 6.76025C13.4886 7.21729 13.112 7.57275 12.6338 7.82666C12.1598 8.08057 11.6245 8.20752 11.0278 8.20752H4.96582ZM4.96582 6.93164H11.0278C11.3706 6.93164 11.6795 6.85758 11.9546 6.70947C12.2297 6.55713 12.4476 6.34977 12.6084 6.0874C12.7734 5.8208 12.856 5.51188 12.856 5.16064C12.856 4.80518 12.7734 4.49626 12.6084 4.23389C12.4476 3.96729 12.2297 3.75993 11.9546 3.61182C11.6795 3.4637 11.3706 3.38965 11.0278 3.38965H4.96582C4.62305 3.38965 4.31201 3.4637 4.03271 3.61182C3.75765 3.75993 3.53971 3.96729 3.37891 4.23389C3.2181 4.49626 3.1377 4.80518 3.1377 5.16064C3.1377 5.51188 3.2181 5.8208 3.37891 6.0874C3.53971 6.34977 3.75765 6.55713 4.03271 6.70947C4.31201 6.85758 4.62305 6.93164 4.96582 6.93164ZM4.96582 6.52539C4.69922 6.52539 4.45801 6.46826 4.24219 6.354C4.0306 6.23975 3.86133 6.08105 3.73438 5.87793C3.61165 5.67057 3.55029 5.42936 3.55029 5.1543C3.55029 4.87923 3.61165 4.64014 3.73438 4.43701C3.86133 4.22965 4.0306 4.06885 4.24219 3.95459C4.45801 3.84033 4.69922 3.7832 4.96582 3.7832H6.02588C6.28825 3.7832 6.52523 3.84033 6.73682 3.95459C6.95264 4.06885 7.12191 4.22965 7.24463 4.43701C7.37158 4.64437 7.43506 4.88558 7.43506 5.16064C7.43506 5.43148 7.37158 5.67057 7.24463 5.87793C7.12191 6.08105 6.95264 6.23975 6.73682 6.354C6.52523 6.46826 6.28825 6.52539 6.02588 6.52539H4.96582ZM4.69287 14.7139C4.15544 14.7139 3.66878 14.5954 3.23291 14.3584C2.80127 14.1257 2.45638 13.8019 2.19824 13.3872C1.94434 12.9725 1.81738 12.4922 1.81738 11.9463C1.81738 11.4004 1.94434 10.9201 2.19824 10.5054C2.45638 10.0907 2.80127 9.76693 3.23291 9.53418C3.66878 9.2972 4.15544 9.17871 4.69287 9.17871H11.3008C11.8382 9.17871 12.3228 9.2972 12.7544 9.53418C13.1903 9.76693 13.5352 10.0907 13.7891 10.5054C14.0472 10.9201 14.1763 11.4004 14.1763 11.9463C14.1763 12.4922 14.0472 12.9725 13.7891 13.3872C13.5352 13.8019 13.1903 14.1257 12.7544 14.3584C12.3228 14.5954 11.8382 14.7139 11.3008 14.7139H4.69287ZM10.2534 13.4507H11.415C11.7113 13.4507 11.9757 13.3872 12.2085 13.2603C12.4455 13.1333 12.6317 12.9577 12.7671 12.7334C12.9025 12.5091 12.9702 12.2467 12.9702 11.9463C12.9702 11.6458 12.9025 11.3835 12.7671 11.1592C12.6317 10.9307 12.4455 10.7529 12.2085 10.626C11.9757 10.499 11.7113 10.4355 11.415 10.4355H10.2534C9.96143 10.4355 9.69906 10.499 9.46631 10.626C9.23356 10.7529 9.04736 10.9285 8.90771 11.1528C8.7723 11.3771 8.70459 11.6395 8.70459 11.9399C8.70459 12.2446 8.7723 12.5091 8.90771 12.7334C9.04736 12.9577 9.23356 13.1333 9.46631 13.2603C9.69906 13.3872 9.96143 13.4507 10.2534 13.4507Z" fill="black"/>
<path d="M4.96582 8.20752C4.36914 8.20752 3.83171 8.08057 3.35352 7.82666C2.87956 7.57275 2.50505 7.21729 2.22998 6.76025C1.95492 6.29899 1.81738 5.76579 1.81738 5.16064C1.81738 4.55127 1.95492 4.01807 2.22998 3.56104C2.50505 3.09977 2.87956 2.74219 3.35352 2.48828C3.83171 2.23438 4.36914 2.10742 4.96582 2.10742H11.0278C11.6245 2.10742 12.1598 2.23438 12.6338 2.48828C13.112 2.74219 13.4886 3.09977 13.7637 3.56104C14.0387 4.01807 14.1763 4.55127 14.1763 5.16064C14.1763 5.76579 14.0387 6.29899 13.7637 6.76025C13.4886 7.21729 13.112 7.57275 12.6338 7.82666C12.1598 8.08057 11.6245 8.20752 11.0278 8.20752H4.96582ZM4.96582 6.93164H11.0278C11.3706 6.93164 11.6795 6.85758 11.9546 6.70947C12.2297 6.55713 12.4476 6.34977 12.6084 6.0874C12.7734 5.8208 12.856 5.51188 12.856 5.16064C12.856 4.80518 12.7734 4.49626 12.6084 4.23389C12.4476 3.96729 12.2297 3.75993 11.9546 3.61182C11.6795 3.4637 11.3706 3.38965 11.0278 3.38965H4.96582C4.62305 3.38965 4.31201 3.4637 4.03271 3.61182C3.75765 3.75993 3.53971 3.96729 3.37891 4.23389C3.2181 4.49626 3.1377 4.80518 3.1377 5.16064C3.1377 5.51188 3.2181 5.8208 3.37891 6.0874C3.53971 6.34977 3.75765 6.55713 4.03271 6.70947C4.31201 6.85758 4.62305 6.93164 4.96582 6.93164ZM4.96582 6.52539C4.69922 6.52539 4.45801 6.46826 4.24219 6.354C4.0306 6.23975 3.86133 6.08105 3.73438 5.87793C3.61165 5.67057 3.55029 5.42936 3.55029 5.1543C3.55029 4.87923 3.61165 4.64014 3.73438 4.43701C3.86133 4.22965 4.0306 4.06885 4.24219 3.95459C4.45801 3.84033 4.69922 3.7832 4.96582 3.7832H6.02588C6.28825 3.7832 6.52523 3.84033 6.73682 3.95459C6.95264 4.06885 7.12191 4.22965 7.24463 4.43701C7.37158 4.64437 7.43506 4.88558 7.43506 5.16064C7.43506 5.43148 7.37158 5.67057 7.24463 5.87793C7.12191 6.08105 6.95264 6.23975 6.73682 6.354C6.52523 6.46826 6.28825 6.52539 6.02588 6.52539H4.96582ZM4.69287 14.7139C4.15544 14.7139 3.66878 14.5954 3.23291 14.3584C2.80127 14.1257 2.45638 13.8019 2.19824 13.3872C1.94434 12.9725 1.81738 12.4922 1.81738 11.9463C1.81738 11.4004 1.94434 10.9201 2.19824 10.5054C2.45638 10.0907 2.80127 9.76693 3.23291 9.53418C3.66878 9.2972 4.15544 9.17871 4.69287 9.17871H11.3008C11.8382 9.17871 12.3228 9.2972 12.7544 9.53418C13.1903 9.76693 13.5352 10.0907 13.7891 10.5054C14.0472 10.9201 14.1763 11.4004 14.1763 11.9463C14.1763 12.4922 14.0472 12.9725 13.7891 13.3872C13.5352 13.8019 13.1903 14.1257 12.7544 14.3584C12.3228 14.5954 11.8382 14.7139 11.3008 14.7139H4.69287ZM10.2534 13.4507H11.415C11.7113 13.4507 11.9757 13.3872 12.2085 13.2603C12.4455 13.1333 12.6317 12.9577 12.7671 12.7334C12.9025 12.5091 12.9702 12.2467 12.9702 11.9463C12.9702 11.6458 12.9025 11.3835 12.7671 11.1592C12.6317 10.9307 12.4455 10.7529 12.2085 10.626C11.9757 10.499 11.7113 10.4355 11.415 10.4355H10.2534C9.96143 10.4355 9.69906 10.499 9.46631 10.626C9.23356 10.7529 9.04736 10.9285 8.90771 11.1528C8.7723 11.3771 8.70459 11.6395 8.70459 11.9399C8.70459 12.2446 8.7723 12.5091 8.90771 12.7334C9.04736 12.9577 9.23356 13.1333 9.46631 13.2603C9.69906 13.3872 9.96143 13.4507 10.2534 13.4507Z" fill="black" fill-opacity="0.2"/>
</svg>
