<svg width="18" height="16" viewBox="0 0 18 16" fill="none" xmlns="http://www.w3.org/2000/svg">
<path d="M9.00045 13.8315C8.91582 13.8315 8.83118 13.8083 8.74655 13.7617C8.66614 13.7152 8.56247 13.6284 8.43551 13.5015L6.86764 11.9971C6.8084 11.9378 6.77031 11.8743 6.75338 11.8066C6.74069 11.7347 6.75338 11.667 6.79147 11.6035C7.02422 11.2946 7.33525 11.0365 7.72457 10.8291C8.11813 10.6175 8.54342 10.5117 9.00045 10.5117C9.44479 10.5117 9.8595 10.6112 10.2446 10.8101C10.6297 11.009 10.9386 11.2544 11.1714 11.5464C11.2306 11.6183 11.2539 11.6966 11.2412 11.7812C11.2327 11.8659 11.1967 11.9378 11.1333 11.9971L9.56539 13.5015C9.43844 13.6284 9.33265 13.7152 9.24801 13.7617C9.16761 13.8083 9.08509 13.8315 9.00045 13.8315ZM5.19821 10.2769L4.18893 9.29297C4.12545 9.22949 4.0916 9.15967 4.08737 9.0835C4.08314 9.00309 4.10853 8.92904 4.16354 8.86133C4.50208 8.45931 4.92103 8.10384 5.42038 7.79492C5.91972 7.48177 6.47409 7.23633 7.08346 7.05859C7.69707 6.88086 8.33607 6.79199 9.00045 6.79199C9.66484 6.79199 10.3017 6.88086 10.9111 7.05859C11.5205 7.23633 12.0748 7.48177 12.5742 7.79492C13.0778 8.10384 13.4967 8.45931 13.831 8.86133C13.8903 8.92904 13.9157 9.00309 13.9072 9.0835C13.903 9.1639 13.8691 9.23372 13.8056 9.29297L12.7964 10.2769C12.7159 10.353 12.6292 10.3911 12.5361 10.3911C12.4472 10.3911 12.3668 10.353 12.2949 10.2769C11.8929 9.84945 11.3999 9.50033 10.8159 9.22949C10.2361 8.95866 9.63099 8.82536 9.00045 8.82959C8.37838 8.82536 7.77536 8.95654 7.19137 9.22314C6.61162 9.48551 6.12497 9.82829 5.73141 10.2515C5.65524 10.3361 5.56637 10.3826 5.46481 10.3911C5.36748 10.3953 5.27861 10.3573 5.19821 10.2769ZM2.53219 7.64258L1.63717 6.72852C1.5737 6.66081 1.53984 6.58675 1.53561 6.50635C1.53138 6.42171 1.55677 6.34766 1.61178 6.28418C2.12383 5.64518 2.76917 5.08024 3.54782 4.58936C4.32646 4.09424 5.18128 3.70915 6.11227 3.43408C7.04749 3.15479 8.01022 3.01514 9.00045 3.01514C9.98646 3.01514 10.9471 3.15479 11.8823 3.43408C12.8175 3.71338 13.6723 4.09847 14.4467 4.58936C15.2254 5.08024 15.8707 5.64518 16.3828 6.28418C16.442 6.34766 16.4695 6.42171 16.4653 6.50635C16.4653 6.58675 16.4314 6.66081 16.3637 6.72852L15.4624 7.62988C15.3904 7.70182 15.3058 7.73991 15.2085 7.74414C15.1111 7.74837 15.0265 7.71452 14.9546 7.64258C14.1759 6.80469 13.2788 6.16992 12.2631 5.73828C11.2518 5.30241 10.1642 5.08447 9.00045 5.08447C7.84518 5.08447 6.76185 5.30241 5.75045 5.73828C4.73906 6.16992 3.83981 6.80257 3.0527 7.63623C2.98076 7.7124 2.89401 7.7526 2.79245 7.75684C2.69511 7.75684 2.60836 7.71875 2.53219 7.64258Z" fill="black"/>
<path d="M9.00045 13.8315C8.91582 13.8315 8.83118 13.8083 8.74655 13.7617C8.66614 13.7152 8.56247 13.6284 8.43551 13.5015L6.86764 11.9971C6.8084 11.9378 6.77031 11.8743 6.75338 11.8066C6.74069 11.7347 6.75338 11.667 6.79147 11.6035C7.02422 11.2946 7.33525 11.0365 7.72457 10.8291C8.11813 10.6175 8.54342 10.5117 9.00045 10.5117C9.44479 10.5117 9.8595 10.6112 10.2446 10.8101C10.6297 11.009 10.9386 11.2544 11.1714 11.5464C11.2306 11.6183 11.2539 11.6966 11.2412 11.7812C11.2327 11.8659 11.1967 11.9378 11.1333 11.9971L9.56539 13.5015C9.43844 13.6284 9.33265 13.7152 9.24801 13.7617C9.16761 13.8083 9.08509 13.8315 9.00045 13.8315ZM5.19821 10.2769L4.18893 9.29297C4.12545 9.22949 4.0916 9.15967 4.08737 9.0835C4.08314 9.00309 4.10853 8.92904 4.16354 8.86133C4.50208 8.45931 4.92103 8.10384 5.42038 7.79492C5.91972 7.48177 6.47409 7.23633 7.08346 7.05859C7.69707 6.88086 8.33607 6.79199 9.00045 6.79199C9.66484 6.79199 10.3017 6.88086 10.9111 7.05859C11.5205 7.23633 12.0748 7.48177 12.5742 7.79492C13.0778 8.10384 13.4967 8.45931 13.831 8.86133C13.8903 8.92904 13.9157 9.00309 13.9072 9.0835C13.903 9.1639 13.8691 9.23372 13.8056 9.29297L12.7964 10.2769C12.7159 10.353 12.6292 10.3911 12.5361 10.3911C12.4472 10.3911 12.3668 10.353 12.2949 10.2769C11.8929 9.84945 11.3999 9.50033 10.8159 9.22949C10.2361 8.95866 9.63099 8.82536 9.00045 8.82959C8.37838 8.82536 7.77536 8.95654 7.19137 9.22314C6.61162 9.48551 6.12497 9.82829 5.73141 10.2515C5.65524 10.3361 5.56637 10.3826 5.46481 10.3911C5.36748 10.3953 5.27861 10.3573 5.19821 10.2769ZM2.53219 7.64258L1.63717 6.72852C1.5737 6.66081 1.53984 6.58675 1.53561 6.50635C1.53138 6.42171 1.55677 6.34766 1.61178 6.28418C2.12383 5.64518 2.76917 5.08024 3.54782 4.58936C4.32646 4.09424 5.18128 3.70915 6.11227 3.43408C7.04749 3.15479 8.01022 3.01514 9.00045 3.01514C9.98646 3.01514 10.9471 3.15479 11.8823 3.43408C12.8175 3.71338 13.6723 4.09847 14.4467 4.58936C15.2254 5.08024 15.8707 5.64518 16.3828 6.28418C16.442 6.34766 16.4695 6.42171 16.4653 6.50635C16.4653 6.58675 16.4314 6.66081 16.3637 6.72852L15.4624 7.62988C15.3904 7.70182 15.3058 7.73991 15.2085 7.74414C15.1111 7.74837 15.0265 7.71452 14.9546 7.64258C14.1759 6.80469 13.2788 6.16992 12.2631 5.73828C11.2518 5.30241 10.1642 5.08447 9.00045 5.08447C7.84518 5.08447 6.76185 5.30241 5.75045 5.73828C4.73906 6.16992 3.83981 6.80257 3.0527 7.63623C2.98076 7.7124 2.89401 7.7526 2.79245 7.75684C2.69511 7.75684 2.60836 7.71875 2.53219 7.64258Z" fill="black" fill-opacity="0.2"/>
</svg>
