<svg width="15" height="20" viewBox="0 0 15 20" fill="none" xmlns="http://www.w3.org/2000/svg">
<path d="M10.5088 5.74882C10.6203 5.74882 10.7927 5.76209 11.0262 5.78862C11.2649 5.80984 11.5355 5.86821 11.838 5.96371C12.1404 6.05922 12.4482 6.2131 12.7612 6.42534C13.0743 6.63757 13.3635 6.93471 13.6288 7.31674C13.6022 7.33266 13.5014 7.40429 13.3263 7.53163C13.1565 7.65898 12.9629 7.84469 12.7453 8.08876C12.5278 8.32753 12.3368 8.63263 12.1723 9.00405C12.0131 9.37016 11.9335 9.8079 11.9335 10.3173C11.9335 10.9009 12.0343 11.3944 12.2359 11.7976C12.4429 12.2009 12.6816 12.5272 12.9522 12.7766C13.2282 13.026 13.4722 13.209 13.6845 13.3258C13.902 13.4372 14.0187 13.4956 14.0347 13.5009C14.0294 13.5221 13.9896 13.6415 13.9153 13.859C13.841 14.0713 13.7243 14.3472 13.5651 14.6868C13.4112 15.021 13.2096 15.3712 12.9602 15.7373C12.732 16.061 12.4959 16.3714 12.2519 16.6685C12.0131 16.9657 11.7504 17.2071 11.4639 17.3928C11.1827 17.5838 10.8643 17.6793 10.5088 17.6793C10.2382 17.6793 10.0074 17.6475 9.81641 17.5838C9.62539 17.5202 9.44233 17.4459 9.26724 17.361C9.09744 17.2814 8.90908 17.2098 8.70215 17.1461C8.49521 17.0824 8.23787 17.0506 7.93013 17.0506C7.52687 17.0506 7.18994 17.101 6.91934 17.2018C6.65404 17.3079 6.402 17.414 6.16323 17.5202C5.92446 17.6263 5.64325 17.6793 5.31958 17.6793C4.82612 17.6793 4.39103 17.4857 4.01431 17.0983C3.64289 16.711 3.26086 16.2441 2.86821 15.6976C2.56577 15.2625 2.28986 14.761 2.04048 14.1933C1.7911 13.6256 1.59212 13.0233 1.44355 12.3866C1.29499 11.7499 1.2207 11.1132 1.2207 10.4765C1.2207 9.45771 1.41437 8.59814 1.80171 7.89775C2.18905 7.19205 2.68516 6.6588 3.29004 6.29799C3.89492 5.93188 4.52368 5.74882 5.17632 5.74882C5.52121 5.74882 5.84487 5.80984 6.14731 5.93188C6.45506 6.05392 6.74159 6.17595 7.00688 6.29799C7.27218 6.41472 7.51361 6.47309 7.73115 6.47309C7.93809 6.47309 8.18216 6.41472 8.46338 6.29799C8.7446 6.17595 9.055 6.05392 9.39458 5.93188C9.73947 5.80984 10.1109 5.74882 10.5088 5.74882ZM9.95171 4.45947C9.68641 4.78313 9.35213 5.05108 8.94888 5.26332C8.55093 5.47556 8.1742 5.58168 7.8187 5.58168C7.74442 5.58168 7.67279 5.57372 7.60381 5.55781C7.5985 5.53658 7.59054 5.49944 7.57993 5.44638C7.57463 5.39332 7.57197 5.33495 7.57197 5.27128C7.57197 4.86803 7.65952 4.47538 7.83462 4.09335C8.00972 3.71132 8.21134 3.39296 8.4395 3.13828C8.72072 2.804 9.07622 2.52543 9.50601 2.30258C9.9411 2.07973 10.3576 1.96035 10.7556 1.94443C10.7715 2.03463 10.7794 2.1381 10.7794 2.25483C10.7794 2.66339 10.7025 3.06134 10.5486 3.44868C10.3948 3.83071 10.1958 4.16764 9.95171 4.45947Z" fill="black"/>
</svg>
