<svg width="304" height="304" viewBox="0 0 304 304" fill="none" xmlns="http://www.w3.org/2000/svg">
<rect width="304" height="304" fill="#007737"/>
<path d="M129.813 128.434C129.813 146.272 138.862 165.516 158.777 165.516C173.546 165.516 188.478 153.986 188.478 128.172C188.478 105.539 176.739 90.3454 159.268 90.3454C145.032 90.3454 129.813 100.346 129.813 128.434ZM166.284 57.2988C201.991 57.2988 226 85.5792 226 127.676C226 169.112 200.708 198.039 164.551 198.039C147.311 198.039 136.269 190.656 130.495 185.311C130.536 186.578 130.564 187.997 130.564 189.512V245.701H93.5739V95.9932C93.5739 93.8166 92.8778 93.128 90.7212 93.128H78V60.3431H109.039C123.33 60.3431 126.988 67.6164 127.684 73.2229C133.485 66.7211 145.51 57.2988 166.284 57.2988Z" fill="white"/>
</svg>
